# xmcd
#
# Track frame offsets: 
#        150
#        21345
#        47408
#        66218
#        91300
#        112268
#        129953
#        150778
#        172258
#        193243
#
# Disc length: 2840 seconds
#
# Revision: 0
# Processed by: cddbd v1.5.2PL0 Copyright (c) Steve Scherf et al.
# Submitted via: ExactAudioCopy v1.0b3
#
DISCID=830b160a
DTITLE=Che Linh, Thanh Tuyen - Ngay Do Xa Roi
DYEAR=1989
DGENRE=
TTITLE0=Thanh Tuyen - Chuyen tinh nguoi trinh nu ten Thi
TTITLE1=Che Linh - Thuong ve quan tro
TTITLE2=Thanh Tuyen - Doi nga chia ly
TTITLE3=Che Linh - Ngay do xa roi
TTITLE4=Thanh Tuyen - Chuyen mot chiec cau da gay
TTITLE5=Che Linh - Doan tai but
TTITLE6=Thanh Tuyen - Bo pho len rung
TTITLE7=Che Linh - La thu do thi
TTITLE8=Thanh Tuyen - Anh hung Tran The Vinh
TTITLE9=Che Linh - Net buon thoi chien
EXTD=
EXTT0=
EXTT1=
EXTT2=
EXTT3=
EXTT4=
EXTT5=
EXTT6=
EXTT7=
EXTT8=
EXTT9=
PLAYORDER=
